<?xml version="1.0" encoding="UTF-8"?>
<!DOCTYPE svg PUBLIC "-//W3C//DTD SVG 1.1//EN" "http://www.w3.org/Graphics/SVG/1.1/DTD/svg11.dtd">
<svg xmlns="http://www.w3.org/2000/svg" version="1.1" width="512px" height="512px" style="shape-rendering:geometricPrecision; text-rendering:geometricPrecision; image-rendering:optimizeQuality; fill-rule:evenodd; clip-rule:evenodd" xmlns:xlink="http://www.w3.org/1999/xlink">
<g><path style="opacity:0.996" fill="#ff8585" d="M 233.5,-0.5 C 248.167,-0.5 262.833,-0.5 277.5,-0.5C 377.769,12.0418 449.269,64.0418 492,155.5C 502.296,180.684 508.796,206.684 511.5,233.5C 511.5,248.167 511.5,262.833 511.5,277.5C 498.958,377.769 446.958,449.269 355.5,492C 330.316,502.296 304.316,508.796 277.5,511.5C 262.833,511.5 248.167,511.5 233.5,511.5C 133.231,498.958 61.7312,446.958 19,355.5C 8.70393,330.316 2.20393,304.316 -0.5,277.5C -0.5,262.833 -0.5,248.167 -0.5,233.5C 12.0418,133.231 64.0418,61.7312 155.5,19C 180.684,8.70393 206.684,2.20393 233.5,-0.5 Z M 252.5,137.5 C 263.049,137.022 270.216,141.688 274,151.5C 274.167,203.17 274.667,254.837 275.5,306.5C 291.653,290.847 307.653,275.014 323.5,259C 340.304,251.902 350.638,257.235 354.5,275C 353.787,279.139 352.287,282.972 350,286.5C 322.5,314 295,341.5 267.5,369C 260.04,374.36 252.373,374.694 244.5,370C 217,342.5 189.5,315 162,287.5C 155.476,276.453 157.309,266.953 167.5,259C 174.664,255.499 181.664,255.832 188.5,260C 204.014,275.681 219.681,291.181 235.5,306.5C 236.333,254.837 236.833,203.17 237,151.5C 239.877,144.114 245.044,139.448 252.5,137.5 Z"/></g>
</svg>
