<?xml version="1.0" encoding="UTF-8"?>
<!DOCTYPE svg PUBLIC "-//W3C//DTD SVG 1.1//EN" "http://www.w3.org/Graphics/SVG/1.1/DTD/svg11.dtd">
<svg xmlns="http://www.w3.org/2000/svg" version="1.1" width="512px" height="512px" style="shape-rendering:geometricPrecision; text-rendering:geometricPrecision; image-rendering:optimizeQuality; fill-rule:evenodd; clip-rule:evenodd" xmlns:xlink="http://www.w3.org/1999/xlink">
<g><path style="opacity:0.998" fill="#80c7e3" d="M 233.5,-0.5 C 248.167,-0.5 262.833,-0.5 277.5,-0.5C 377.769,12.0418 449.269,64.0418 492,155.5C 502.296,180.684 508.796,206.684 511.5,233.5C 511.5,248.167 511.5,262.833 511.5,277.5C 498.958,377.769 446.958,449.269 355.5,492C 330.316,502.296 304.316,508.796 277.5,511.5C 262.833,511.5 248.167,511.5 233.5,511.5C 133.231,498.958 61.7312,446.958 19,355.5C 8.70393,330.316 2.20393,304.316 -0.5,277.5C -0.5,262.833 -0.5,248.167 -0.5,233.5C 12.0418,133.231 64.0418,61.7312 155.5,19C 180.684,8.70393 206.684,2.20393 233.5,-0.5 Z M 268.5,142.5 C 295.167,169.833 322.167,196.833 349.5,223.5C 355.883,235.739 353.217,245.572 341.5,253C 334.861,255.336 328.528,254.67 322.5,251C 306.986,235.319 291.319,219.819 275.5,204.5C 274.667,256.163 274.167,307.83 274,359.5C 267.684,372.871 257.851,376.371 244.5,370C 239.273,365.713 236.606,360.213 236.5,353.5C 236.833,303.829 236.5,254.162 235.5,204.5C 219.479,219.854 203.812,235.521 188.5,251.5C 171.417,259.458 160.751,254.292 156.5,236C 157.291,231.456 158.958,227.289 161.5,223.5C 189.167,196.5 216.5,169.167 243.5,141.5C 252.084,135.885 260.417,136.218 268.5,142.5 Z"/></g>
<g><path style="opacity:0.562" fill="#80c5e4" d="M 243.5,141.5 C 216.5,169.167 189.167,196.5 161.5,223.5C 187.581,195.917 214.248,168.751 241.5,142C 242.094,141.536 242.761,141.369 243.5,141.5 Z"/></g>
<g><path style="opacity:0.562" fill="#80c5e3" d="M 268.5,142.5 C 295.749,168.248 322.582,194.581 349,221.5C 349.464,222.094 349.631,222.761 349.5,223.5C 322.167,196.833 295.167,169.833 268.5,142.5 Z"/></g>
<g><path style="opacity:0.369" fill="#80c6e3" d="M 236.5,353.5 C 235.667,304.668 235.167,255.668 235,206.5C 219.915,222.088 204.415,237.088 188.5,251.5C 203.812,235.521 219.479,219.854 235.5,204.5C 236.5,254.162 236.833,303.829 236.5,353.5 Z"/></g>
</svg>
