<?xml version="1.0" encoding="UTF-8"?>
<!DOCTYPE svg PUBLIC "-//W3C//DTD SVG 1.1//EN" "http://www.w3.org/Graphics/SVG/1.1/DTD/svg11.dtd">
<svg xmlns="http://www.w3.org/2000/svg" version="1.1" width="512px" height="512px" style="shape-rendering:geometricPrecision; text-rendering:geometricPrecision; image-rendering:optimizeQuality; fill-rule:evenodd; clip-rule:evenodd" xmlns:xlink="http://www.w3.org/1999/xlink">
<g><path style="opacity:0.969" fill="#000000" d="M 273.5,25.5 C 278.034,25.267 282.368,26.1003 286.5,28C 330.046,48.6068 373.713,68.9401 417.5,89C 427.109,93.7155 430.609,101.215 428,111.5C 424.767,119.636 420.767,127.302 416,134.5C 391.533,133.514 367.033,133.181 342.5,133.5C 344,120.017 340,108.517 330.5,99C 324.154,94.8256 317.488,91.159 310.5,88C 290.33,79.0533 270.33,69.7199 250.5,60C 255.244,49.845 260.244,39.845 265.5,30C 268.099,28.205 270.766,26.705 273.5,25.5 Z"/></g>
<g><path style="opacity:0.971" fill="#000000" d="M 164.5,47.5 C 171.221,46.7513 177.554,47.9179 183.5,51C 227.5,71.6667 271.5,92.3333 315.5,113C 322.044,118.468 324.044,125.302 321.5,133.5C 254.5,133.5 187.5,133.5 120.5,133.5C 132.174,106.659 144.341,79.9926 157,53.5C 159.114,50.8792 161.614,48.8792 164.5,47.5 Z"/></g>
<g><path style="opacity:0.993" fill="#000000" d="M 99.5,153.5 C 205.53,153.013 311.53,153.513 417.5,155C 441.767,161.601 456.934,177.101 463,201.5C 463.5,214.162 463.667,226.829 463.5,239.5C 429.498,239.333 395.498,239.5 361.5,240C 331.403,242.431 312.569,258.264 305,287.5C 303,308.833 303,330.167 305,351.5C 312.569,380.736 331.403,396.569 361.5,399C 395.498,399.5 429.498,399.667 463.5,399.5C 463.667,412.171 463.5,424.838 463,437.5C 456.934,461.899 441.767,477.399 417.5,484C 311.53,485.654 205.53,485.987 99.5,485C 72.0976,480.264 54.9309,464.431 48,437.5C 47.3333,358.833 47.3333,280.167 48,201.5C 55.1052,174.557 72.2718,158.557 99.5,153.5 Z"/></g>
<g><path style="opacity:0.984" fill="#000000" d="M 354.5,271.5 C 390.833,271.5 427.167,271.5 463.5,271.5C 463.5,303.5 463.5,335.5 463.5,367.5C 427.165,367.667 390.832,367.5 354.5,367C 345,364.167 338.833,358 336,348.5C 334.44,331.535 334.107,314.535 335,297.5C 335.961,284.54 342.461,275.874 354.5,271.5 Z M 369.5,298.5 C 390.578,300.657 397.412,311.657 390,331.5C 378.653,343.497 367.319,343.497 356,331.5C 348.498,315.495 352.998,304.495 369.5,298.5 Z"/></g>
</svg>
